<svg xmlns="http://www.w3.org/2000/svg" width="96" height="32" viewBox="0 0 96 32"><defs><style>.cls-1{fill:#ccc;}.cls-2{fill:#666;}.cls-3{fill:#999;}</style></defs><title>hints</title><g id="Layer_2" data-name="Layer 2"><g id="Layer_1-2" data-name="Layer 1"><path class="cls-1" d="M29,17.5A2.5,2.5,0,0,1,31.5,20v9A2.5,2.5,0,0,1,29,31.5H20A2.5,2.5,0,0,1,17.5,29V20A2.5,2.5,0,0,1,20,17.5h9m0-.5H20a3,3,0,0,0-3,3v9a3,3,0,0,0,3,3h9a3,3,0,0,0,3-3V20a3,3,0,0,0-3-3Z"/><path class="cls-1" d="M29,.5A2.5,2.5,0,0,1,31.5,3v9A2.5,2.5,0,0,1,29,14.5H20A2.5,2.5,0,0,1,17.5,12V3A2.5,2.5,0,0,1,20,.5h9M29,0H20a3,3,0,0,0-3,3v9a3,3,0,0,0,3,3h9a3,3,0,0,0,3-3V3a3,3,0,0,0-3-3Z"/><path class="cls-1" d="M47,17.5A2.5,2.5,0,0,1,49.5,20v9A2.5,2.5,0,0,1,47,31.5H38A2.5,2.5,0,0,1,35.5,29V20A2.5,2.5,0,0,1,38,17.5h9m0-.5H38a3,3,0,0,0-3,3v9a3,3,0,0,0,3,3h9a3,3,0,0,0,3-3V20a3,3,0,0,0-3-3Z"/><path class="cls-1" d="M12,17.5A2.5,2.5,0,0,1,14.5,20v9A2.5,2.5,0,0,1,12,31.5H3A2.5,2.5,0,0,1,.5,29V20A2.5,2.5,0,0,1,3,17.5h9m0-.5H3a3,3,0,0,0-3,3v9a3,3,0,0,0,3,3h9a3,3,0,0,0,3-3V20a3,3,0,0,0-3-3Z"/><path class="cls-2" d="M22,7.45,24.4,5.08a.12.12,0,0,1,.19,0L27,7.45a.15.15,0,0,1,0,.2l-.08.08a.14.14,0,0,1-.19,0l-2-2V10a.13.13,0,0,1-.14.13h-.11a.13.13,0,0,1-.13-.13V5.72l-2,2a.14.14,0,0,1-.19,0L22,7.65A.13.13,0,0,1,22,7.45Z"/><path class="cls-2" d="M27,24.67,24.59,27a.12.12,0,0,1-.19,0L22,24.67a.12.12,0,0,1,0-.19l.08-.08a.12.12,0,0,1,.19,0l2,2V22.17a.13.13,0,0,1,.13-.13h.11a.13.13,0,0,1,.14.13v4.24l2-2a.12.12,0,0,1,.19,0l.08.08A.14.14,0,0,1,27,24.67Z"/><path class="cls-2" d="M42.6,22.09,45,24.47a.14.14,0,0,1,0,.19L42.6,27a.12.12,0,0,1-.19,0L42.33,27a.14.14,0,0,1,0-.19l2-2H40.11a.13.13,0,0,1-.13-.13V24.5a.13.13,0,0,1,.13-.13h4.23l-2-2a.14.14,0,0,1,0-.19l.08-.08A.14.14,0,0,1,42.6,22.09Z"/><path class="cls-2" d="M7.39,27,5,24.66a.12.12,0,0,1,0-.19l2.37-2.38a.14.14,0,0,1,.19,0l.08.08a.12.12,0,0,1,0,.19l-2,2H9.89a.13.13,0,0,1,.13.13v.12a.13.13,0,0,1-.13.13H5.65l2,2a.12.12,0,0,1,0,.19L7.58,27A.12.12,0,0,1,7.39,27Z"/><path class="cls-1" d="M87,.5A8.51,8.51,0,0,1,95.5,9V23A8.51,8.51,0,0,1,87,31.5H84A8.51,8.51,0,0,1,75.5,23V9A8.51,8.51,0,0,1,84,.5h3M87,0H84a9,9,0,0,0-9,9V23a9,9,0,0,0,9,9h3a9,9,0,0,0,9-9V9a9,9,0,0,0-9-9Z"/><rect class="cls-3" x="84" y="5" width="3" height="5" rx="1.5"/></g></g></svg>