<svg xmlns="http://www.w3.org/2000/svg" width="152.26" height="54.55" viewBox="0 0 152.26 54.55"><defs><style>.cls-1{fill:#333;}.cls-2{fill:#8b0108;}.cls-3{fill:#8b0103;}.cls-4{fill:#670000;}.cls-5{fill:#b6121c;}.cls-6{fill:#810001;}.cls-7{fill:#ed1c28;}</style></defs><title>dit</title><g id="Layer_2" data-name="Layer 2"><g id="Layer_1-2" data-name="Layer 1"><path class="cls-1" d="M63.59,8.14l.84.1.06.1-.17,2.54h-.64L63.34,9H58.25c-.15.64-.3,1.26-.46,1.9h-.58c0-.84-.07-1.71-.11-2.56a.3.3,0,0,1,.08-.08l.72-.1A6.85,6.85,0,0,0,59.39,3.4V2.54l-.94-.25,0-.5c1.26,0,1.61,0,2.87,0s1.9,0,3.15,0c0,.18,0,.36,0,.54l-.93.2c0,1.88,0,3.74,0,5.61M60.14,3.41A8.55,8.55,0,0,1,58.89,8.2h1.77l1.71,0V2.56H60.14Z"/><path class="cls-1" d="M70,6.07l-.1.12-3.4.17c0,1.26.42,1.91,1.63,1.91A3.86,3.86,0,0,0,69.57,8l.2.56a3.68,3.68,0,0,1-2,.61c-1.77,0-2.46-1-2.46-2.63,0-1.33.53-2.73,2.5-2.73S69.94,5,70,6.07M67.67,4.45c-.94,0-1.17.85-1.17,1.42l2.15-.22c0-.55-.15-1.2-1-1.2"/><path class="cls-1" d="M73.42,8.52l0,.46H70.79l0-.44.79-.28V4.51l-.82-.23,0-.44c1.17,0,2.07,0,3.07,0s2,0,3,0V4.3L76,4.51V8.29l.76.23V9H74.13V8.54l.79-.28V4.63H72.66V8.29Z"/><path class="cls-1" d="M80,9a3.77,3.77,0,0,1-.91.13,1.36,1.36,0,0,1-1.48-1.43,1.27,1.27,0,0,1,.55-1.14,5.36,5.36,0,0,1,2.56-.49V5.53c0-.67-.27-.87-1-.87a6.11,6.11,0,0,0-1.63.25l-.18-.61a4.52,4.52,0,0,1,2.13-.54c1.13,0,1.75.41,1.75,1.66V8.17l.83.18v.44a2.33,2.33,0,0,1-1.18.31c-.29,0-.7,0-.76-.78h0Zm.72-1.14V6.58c-1.79.12-1.93.7-1.93,1a.62.62,0,0,0,.66.71,2.61,2.61,0,0,0,1.27-.45"/><path class="cls-1" d="M85.85,10.82l0,.45H83.09l0-.44.8-.28,0-5.92-.75-.19V4l1.54-.24.1.05.16.77h0l.76-.72a3.66,3.66,0,0,1,.9-.12c1.42,0,2,1.12,2,2.58S88,9.13,86.3,9.13A3.08,3.08,0,0,1,85,8.85v1.72Zm.41-6.16A2.59,2.59,0,0,0,85,5.07v3a3.39,3.39,0,0,0,1.13.21c1,0,1.36-.94,1.36-1.85s-.3-1.78-1.21-1.78"/><path class="cls-1" d="M93.27,9H90.62c0-.16,0-.28,0-.44l.82-.28V4.5H90.27c-.13.33-.26.68-.38,1a4.1,4.1,0,0,1-.49-.06c0-.51,0-1,0-1.55l.16-.07h.5l1.86,0,1.89,0h.5l.16.07,0,1.55a4.26,4.26,0,0,1-.5.06l-.37-1H92.51c0,1.27,0,2.53,0,3.8l.77.22Z"/><path class="cls-1" d="M97.47,9a3.77,3.77,0,0,1-.91.13,1.37,1.37,0,0,1-1.49-1.43,1.28,1.28,0,0,1,.56-1.14,5.29,5.29,0,0,1,2.56-.49V5.53c0-.67-.27-.87-1-.87a6.11,6.11,0,0,0-1.63.25l-.18-.61a4.51,4.51,0,0,1,2.12-.54c1.13,0,1.76.41,1.76,1.66V8.17l.83.18v.44A2.36,2.36,0,0,1,99,9.1c-.3,0-.7,0-.76-.78h0Zm.72-1.14V6.58c-1.79.12-1.93.7-1.93,1s.2.71.65.71a2.64,2.64,0,0,0,1.28-.45"/><path class="cls-1" d="M105.11,6.14l1-2.31.82,0c.29,0,.54,0,1,0,0,.17,0,.34,0,.5l-.8.19c.11,1.29.2,2.46.31,3.79l.77.2c0,.16,0,.31,0,.47h-2.65l0-.44.77-.23c-.07-1.08-.06-2.17-.13-3.22h0c-.15.32-.28.72-.44,1-.37.88-.76,1.78-1.12,2.62h-.56c-.33-.71-.67-1.43-1-2.16-.2-.43-.39-.91-.59-1.34h0c-.07,1-.13,2.06-.17,3.05l.87.2,0,.47h-2.43c0-.16,0-.3,0-.46l.84-.22.33-3.78-.8-.21.06-.48c.22,0,.44,0,1,0,.27,0,.56,0,1,0a4.66,4.66,0,0,0,.13.45l.84,2,.48,1.19h.06Z"/><path class="cls-1" d="M113.84,6.07l-.09.12-3.4.17c0,1.26.41,1.91,1.63,1.91A3.81,3.81,0,0,0,113.43,8l.2.56a3.66,3.66,0,0,1-2,.61c-1.77,0-2.46-1-2.46-2.63,0-1.33.54-2.73,2.5-2.73s2.17,1.27,2.2,2.31m-2.3-1.62c-.94,0-1.17.85-1.17,1.42l2.14-.22c0-.55-.15-1.2-1-1.2"/><polygon class="cls-1" points="114.4 4.28 114.42 3.84 117.09 3.84 117.11 4.3 116.32 4.51 116.32 6 118.57 6 118.57 4.52 117.81 4.28 117.81 3.84 120.48 3.84 120.49 4.3 119.67 4.51 119.67 8.29 120.43 8.52 120.42 8.98 117.79 8.98 117.78 8.54 118.57 8.26 118.57 6.61 116.32 6.61 116.32 8.29 117.08 8.52 117.06 8.98 114.45 8.98 114.42 8.54 115.22 8.26 115.22 4.51 114.4 4.28"/><path class="cls-1" d="M125.14,9h-2.66c0-.16,0-.28,0-.44l.82-.28V4.5h-1.15c-.12.33-.26.68-.37,1a3.65,3.65,0,0,1-.49-.06c0-.51,0-1,0-1.55l.15-.07H122l1.86,0,1.88,0h.5l.16.07,0,1.55a4.1,4.1,0,0,1-.49.06l-.37-1h-1.16c0,1.27,0,2.53,0,3.8l.78.22Z"/><polygon class="cls-1" points="61.56 17.29 61.56 17.09 60.79 16.86 60.79 16.41 63.38 16.41 63.4 16.88 62.66 17.06 62.66 20.84 63.38 21.06 63.37 21.53 60.79 21.53 60.78 21.08 61.55 20.81 61.55 18.16 59.26 20.63 59.26 20.85 60.02 21.07 60.01 21.53 57.38 21.53 57.36 21.08 58.15 20.81 58.15 17.06 57.34 16.86 57.36 16.41 60.03 16.41 60.04 16.86 59.26 17.06 59.26 19.76 61.56 17.29"/><polygon class="cls-1" points="64.29 16.83 64.31 16.39 66.98 16.39 67 16.86 66.21 17.07 66.21 18.55 68.46 18.55 68.46 17.07 67.69 16.83 67.7 16.39 70.37 16.39 70.38 16.86 69.56 17.07 69.56 20.84 70.32 21.07 70.31 21.53 67.69 21.53 67.67 21.09 68.46 20.81 68.46 19.17 66.21 19.17 66.21 20.84 66.97 21.07 66.95 21.53 64.34 21.53 64.31 21.09 65.11 20.81 65.11 17.07 64.29 16.83"/><path class="cls-1" d="M76.06,23.39c0,.16,0,.3,0,.43H73.37c0-.11,0-.29,0-.42a8.22,8.22,0,0,0,.83-.3v-2l-.68.54-.29,0c-1.44,0-1.91-1.39-1.91-2.56,0-1.5.77-2.81,2.1-2.81a2.15,2.15,0,0,1,.77.15V14.86l-.52-.13V14.3L75.16,14l.09,0v2.77l.63-.54a1.08,1.08,0,0,1,.3,0c1.41,0,1.94,1.3,1.94,2.67s-.66,2.7-2,2.7a2.25,2.25,0,0,1-.82-.16v1.64l.8.25m-1.88-2.76c0-1.16,0-2.29,0-3.46a1.72,1.72,0,0,0-.43-.05c-1,0-1.32.92-1.32,1.88,0,1.12.31,1.8,1.2,1.8a1.27,1.27,0,0,0,.56-.17m1.06-3.27v3.47a1.38,1.38,0,0,0,.51.08c.84,0,1.24-.9,1.24-1.9s-.39-1.83-1.2-1.83a1,1,0,0,0-.55.18"/><path class="cls-1" d="M81.56,21.67c-1.84,0-2.49-1.16-2.49-2.65a2.5,2.5,0,0,1,2.59-2.71A2.34,2.34,0,0,1,84.12,19a2.45,2.45,0,0,1-2.56,2.71m0-.71C82.65,21,83,20,83,19.08S82.65,17,81.61,17s-1.34,1-1.34,1.87c0,1,.18,2.08,1.33,2.08"/><path class="cls-1" d="M87.15,23.37l0,.45H84.39l0-.44.8-.28V17.18L84.44,17v-.44L86,16.31l.09.05.17.77h0l.75-.71a3.37,3.37,0,0,1,.9-.13c1.43,0,2,1.12,2,2.59s-.63,2.79-2.34,2.79a3,3,0,0,1-1.32-.27v1.71Zm.41-6.16a2.59,2.59,0,0,0-1.28.41v3a3.11,3.11,0,0,0,1.13.21c1,0,1.36-.94,1.36-1.85s-.3-1.78-1.21-1.78"/><path class="cls-1" d="M94.94,18.7l1-2.32.81,0a10,10,0,0,0,1,0c0,.17,0,.34,0,.51l-.79.18c.11,1.29.2,2.46.31,3.79.25.08.51.13.76.2,0,.16,0,.31,0,.47H95.46l0-.44.77-.23c-.07-1.08-.06-2.16-.14-3.22h0c-.15.32-.28.72-.44,1.06-.37.88-.76,1.77-1.13,2.61h-.55c-.34-.71-.67-1.43-1-2.15-.2-.43-.39-.91-.59-1.34h0c-.08,1-.13,2.05-.17,3,.28.08.58.13.87.2l0,.47H90.55c0-.16,0-.3,0-.46l.84-.22.33-3.78-.8-.2.06-.49c.22,0,.44,0,1,0a8.2,8.2,0,0,0,1,0c.06.2.1.34.14.45l.84,2L94.36,20h.06Z"/><path class="cls-1" d="M101.3,21.53a3.73,3.73,0,0,1-.91.14,1.36,1.36,0,0,1-1.48-1.43,1.28,1.28,0,0,1,.55-1.15A5.6,5.6,0,0,1,102,18.6v-.52c0-.67-.27-.87-1-.87a6.11,6.11,0,0,0-1.63.25l-.18-.6a4.41,4.41,0,0,1,2.13-.55c1.13,0,1.75.41,1.75,1.66v2.76l.83.17v.44a2.34,2.34,0,0,1-1.18.32c-.29,0-.7,0-.75-.79h0Zm.72-1.14V19.14c-1.79.11-1.93.7-1.93,1a.62.62,0,0,0,.66.71,2.61,2.61,0,0,0,1.27-.45"/><path class="cls-1" d="M107.86,21.53h-3c0-.16,0-.3,0-.46l.74-.23V17.12l-.79-.28,0-.45h2.55l0,.48c-.24.07-.47.13-.69.21v3.74h2.13V17.12l-.79-.28,0-.45h2.54l0,.48-.69.21v3.76c.25,0,.51,0,.77.08a.15.15,0,0,0,0,.08l-.11,2H110l-.23-1.49Z"/><polygon class="cls-1" points="115.78 17.29 115.78 17.09 115.01 16.86 115.02 16.41 117.6 16.41 117.63 16.88 116.88 17.06 116.88 20.84 117.6 21.06 117.59 21.53 115.01 21.53 115 21.08 115.77 20.81 115.77 18.16 113.48 20.63 113.48 20.85 114.25 21.07 114.23 21.53 111.61 21.53 111.59 21.08 112.37 20.81 112.37 17.06 111.56 16.86 111.59 16.41 114.25 16.41 114.27 16.86 113.48 17.06 113.48 19.76 115.78 17.29"/><path class="cls-1" d="M120.84,21.67c-1.85,0-2.5-1.16-2.5-2.65a2.5,2.5,0,0,1,2.59-2.71A2.34,2.34,0,0,1,123.39,19a2.44,2.44,0,0,1-2.55,2.71m0-.71c1,0,1.35-1,1.35-1.88s-.3-2.07-1.34-2.07-1.34,1-1.34,1.87c0,1,.18,2.08,1.33,2.08"/><polygon class="cls-1" points="124.07 16.83 124.09 16.39 126.76 16.39 126.78 16.86 125.98 17.07 125.98 18.55 128.23 18.55 128.23 17.07 127.47 16.83 127.48 16.39 130.15 16.39 130.16 16.86 129.33 17.07 129.33 20.84 130.09 21.07 130.09 21.53 127.46 21.53 127.45 21.09 128.23 20.81 128.23 19.17 125.98 19.17 125.98 20.84 126.75 21.07 126.73 21.53 124.11 21.53 124.09 21.09 124.89 20.81 124.89 17.07 124.07 16.83"/><polygon class="cls-1" points="131.08 16.83 131.1 16.39 133.77 16.39 133.79 16.86 132.99 17.07 132.99 18.55 135.24 18.55 135.24 17.07 134.48 16.83 134.49 16.39 137.16 16.39 137.17 16.86 136.34 17.07 136.34 20.84 137.11 21.07 137.09 21.53 134.47 21.53 134.46 21.09 135.24 20.81 135.24 19.17 132.99 19.17 132.99 20.84 133.76 21.07 133.74 21.53 131.12 21.53 131.1 21.09 131.9 20.81 131.9 17.07 131.08 16.83"/><path class="cls-1" d="M141.26,18c1.09,0,2.13.4,2.13,1.71,0,1.14-.78,1.8-2.15,1.8l-1.72,0h-1.33l0-.47.71-.23V17.1l-.78-.25,0-.44h2.6v.47l-.74.18v3.72a3.68,3.68,0,0,0,.86.08c1,0,1.4-.42,1.4-1.1s-.49-1.11-1.48-1.11l-.42,0-.05-.56a5.23,5.23,0,0,1,1-.09m4.91,3v.49H143.6l0-.46.74-.24V17.1l-.71-.23,0-.48h2.48l0,.51-.71.17v3.77Z"/><path class="cls-1" d="M149.43,19.74c-.26.37-.6.81-.78,1.09l.68.22,0,.48h-2.55l0-.49a3.29,3.29,0,0,0,1.67-1.14l.66-.75c-.45-.66-.9-1.3-1.37-2l-.8-.24v-.46l1.92-.09a3.48,3.48,0,0,0,.51,1.2l.4.63c.25-.33.59-.79.77-1.06l-.64-.22v-.46c.83,0,1.38,0,2.18-.09l.07.5A5.87,5.87,0,0,0,150.77,18l-.69.77c.42.68,1,1.46,1.44,2.08l.74.19,0,.47-1.62.08-1.18-1.87"/><path class="cls-1" d="M60.93,34.08H58.27c0-.15,0-.28,0-.44l.82-.28V29.61H57.93c-.13.32-.26.68-.38,1a3.87,3.87,0,0,1-.49-.05c0-.51,0-1,0-1.56l.16-.06h.5l1.86,0,1.89,0H62l.16.06,0,1.56a4.28,4.28,0,0,1-.49.05l-.38-1H60.17c0,1.26,0,2.53,0,3.79l.77.22Z"/><path class="cls-1" d="M67.44,31.18l-.1.11-3.4.18c0,1.25.42,1.9,1.64,1.9A4,4,0,0,0,67,33.06l.2.55a3.68,3.68,0,0,1-2,.61c-1.77,0-2.46-1-2.46-2.63,0-1.32.53-2.73,2.5-2.73s2.17,1.28,2.2,2.32m-2.3-1.63c-1,0-1.18.85-1.18,1.43l2.15-.22c0-.56-.15-1.21-1-1.21"/><path class="cls-1" d="M70.57,32.29c-.26.37-.59.81-.77,1.09l.68.22,0,.48H67.91l0-.49a3.34,3.34,0,0,0,1.67-1.14l.66-.75c-.45-.66-.9-1.3-1.37-2l-.8-.24V29L70,28.91a3.42,3.42,0,0,0,.51,1.19l.4.64c.25-.34.59-.8.77-1.07L71,29.45V29c.83,0,1.38,0,2.18-.08l.06.5a6,6,0,0,0-1.35,1.16l-.69.77c.43.68,1,1.47,1.45,2.08l.74.19,0,.47-1.62.09c-.31-.51-.83-1.32-1.19-1.88"/><polygon class="cls-1" points="73.95 29.39 73.97 28.95 76.64 28.95 76.66 29.41 75.87 29.62 75.87 31.1 78.12 31.1 78.12 29.63 77.35 29.39 77.36 28.95 80.03 28.95 80.04 29.41 79.22 29.62 79.22 33.39 79.98 33.62 79.97 34.08 77.34 34.08 77.33 33.64 78.12 33.36 78.12 31.72 75.87 31.72 75.87 33.39 76.63 33.62 76.61 34.08 73.99 34.08 73.97 33.64 74.77 33.36 74.77 29.62 73.95 29.39"/><path class="cls-1" d="M83.24,34.22c-1.84,0-2.49-1.16-2.49-2.65a2.51,2.51,0,0,1,2.59-2.71,2.34,2.34,0,0,1,2.46,2.65,2.45,2.45,0,0,1-2.56,2.71m0-.71c1.06,0,1.35-.95,1.35-1.87s-.29-2.08-1.34-2.08-1.34,1-1.34,1.88.19,2.07,1.33,2.07"/><path class="cls-1" d="M92.22,28.93v.51l-.79.17v3.78l.73.23,0,.46H89.59l0-.46.78-.26V29.63H89c-.11,3-.53,4.58-2,4.58-.49,0-.92-.23-.92-.62a.8.8,0,0,1,.44-.64l.93.54c.46-.43.8-1.34.89-3.86l-.84-.2,0-.5c1,0,1.17,0,2.23,0s1.47,0,2.42,0"/><path class="cls-1" d="M95.42,34.22c-1.84,0-2.49-1.16-2.49-2.65a2.51,2.51,0,0,1,2.58-2.71A2.34,2.34,0,0,1,98,31.51a2.44,2.44,0,0,1-2.55,2.71m0-.71c1,0,1.35-.95,1.35-1.87s-.3-2.08-1.34-2.08-1.34,1-1.34,1.88.19,2.07,1.33,2.07"/><path class="cls-1" d="M98.77,29.43l.07-.48H101c.76,0,1.22,0,1.94,0l.14.07,0,1.48-.5.09-.33-.92h-1.74V33.4l.76.22v.46H98.67l0-.45.79-.27V29.61Z"/><polygon class="cls-1" points="108.14 29.85 108.14 29.64 107.36 29.41 107.37 28.96 109.96 28.96 109.98 29.43 109.23 29.62 109.23 33.39 109.96 33.61 109.95 34.08 107.36 34.08 107.35 33.63 108.13 33.36 108.13 30.71 105.83 33.18 105.83 33.4 106.6 33.62 106.59 34.08 103.96 34.08 103.94 33.63 104.72 33.36 104.72 29.62 103.92 29.41 103.94 28.96 106.61 28.96 106.62 29.41 105.83 29.62 105.83 32.32 108.14 29.85"/><path class="cls-1" d="M115.09,29.85v-.21l-.78-.23V29h2.59l0,.47-.75.19v3.77l.73.22v.47h-2.59v-.45l.78-.27V30.72l-2.29,2.46v.22l.76.22v.46h-2.63l0-.45.79-.27V29.62l-.81-.21,0-.45h2.67v.45l-.78.21v2.7Zm-3-2.69h0l.79-.4c.3.53.76.9,1.06.9s.74-.14,1.41-.87c.12.12.26.21.39.33a2.35,2.35,0,0,1-1.9,1.26,2.16,2.16,0,0,1-1.76-1.21"/><path class="cls-1" d="M57.45,42l.06-.48h2.18c.75,0,1.21,0,1.93,0l.15.07,0,1.49-.5.08L61,42.2H59.22V46l.76.22v.46H57.34l0-.45.8-.28V42.16Z"/><path class="cls-1" d="M64.84,46.77c-1.84,0-2.49-1.16-2.49-2.64a2.5,2.5,0,0,1,2.59-2.71,2.34,2.34,0,0,1,2.46,2.64,2.44,2.44,0,0,1-2.56,2.71m0-.71c1.06,0,1.35-1,1.35-1.87s-.29-2.07-1.33-2.07-1.34,1-1.34,1.87.18,2.07,1.32,2.07"/><path class="cls-1" d="M70.64,48.48l0,.45H67.87l0-.44.81-.28V42.29l-.74-.19v-.44l1.53-.24.1,0,.16.76h0l.75-.71a3.72,3.72,0,0,1,.9-.12c1.42,0,2,1.11,2,2.58s-.64,2.79-2.35,2.79a3,3,0,0,1-1.31-.27v1.72Zm.4-6.17a2.52,2.52,0,0,0-1.27.41v3A3.29,3.29,0,0,0,70.9,46c1,0,1.36-1,1.36-1.86S72,42.31,71,42.31"/><path class="cls-1" d="M76.86,46.77c-1.84,0-2.49-1.16-2.49-2.64A2.5,2.5,0,0,1,77,41.42a2.34,2.34,0,0,1,2.46,2.64,2.43,2.43,0,0,1-2.55,2.71m0-.71c1.06,0,1.35-1,1.35-1.87S78,42.12,76.9,42.12s-1.34,1-1.34,1.87.19,2.07,1.33,2.07"/><path class="cls-1" d="M85.71,46l0,.08c0,.67-.08,1.33-.11,2h-.59c-.08-.5-.16-1-.25-1.48h-4l-.3,1.48H80c0-.7,0-1.36-.08-2A.5.5,0,0,1,80,46l.63-.07A4.55,4.55,0,0,0,81.7,42.6c0-.16,0-.29,0-.45-.25,0-.5-.11-.74-.18,0-.16,0-.32,0-.49,1,0,1.23,0,2.16,0h2.46l0,.48a5.43,5.43,0,0,0-.67.16V46ZM82.33,42.6A5.44,5.44,0,0,1,81.39,46h2.48v-3.8H82.33Z"/><path class="cls-1" d="M89,46.64a3.7,3.7,0,0,1-.91.13,1.36,1.36,0,0,1-1.48-1.43,1.26,1.26,0,0,1,.55-1.14,5.38,5.38,0,0,1,2.57-.49v-.53c0-.67-.28-.86-1-.86a6.11,6.11,0,0,0-1.63.25L86.94,42a4.4,4.4,0,0,1,2.13-.54c1.13,0,1.76.4,1.76,1.66v2.75l.82.18v.44a2.31,2.31,0,0,1-1.18.31c-.29,0-.7,0-.75-.78h0Zm.73-1.14V44.24c-1.79.12-1.94.7-1.94,1s.21.72.66.72a2.64,2.64,0,0,0,1.28-.45"/><path class="cls-1" d="M97.45,40.94l-.22,4.93,1.1.23,0,.54h-3l0-.52,1.07-.27.44-5.64-1-.3.07-.49c1,0,1.42,0,2.45,0a4.24,4.24,0,0,0,.19.6l1.11,2.59.81,1.94h.07l.87-2.12,1.29-3c.59,0,1.52,0,2.36,0l0,.52-1,.27.42,5.65,1,.24,0,.54h-3.21l0-.49,1-.29-.24-5h-.06l-2.29,5.46h-.65l-2.35-5.39Z"/><path class="cls-1" d="M108.35,46.77c-1.84,0-2.49-1.16-2.49-2.64a2.5,2.5,0,0,1,2.58-2.71,2.34,2.34,0,0,1,2.46,2.64,2.44,2.44,0,0,1-2.55,2.71m0-.71c1.05,0,1.35-1,1.35-1.87s-.3-2.07-1.34-2.07-1.34,1-1.34,1.87.19,2.07,1.33,2.07"/><path class="cls-1" d="M114.44,41.42c.93,0,1.68.34,1.68.9a.82.82,0,0,1-.56.71l-1.25-.94c-.93.13-1.26,1-1.26,1.91,0,1.24.35,1.89,1.6,1.89a5.08,5.08,0,0,0,1.32-.24l.2.59a3.52,3.52,0,0,1-1.88.53c-1.68,0-2.45-.85-2.45-2.61a2.52,2.52,0,0,1,2.6-2.74"/><path class="cls-1" d="M119.33,46.19v.45h-2.64l0-.44.83-.3c0-.15,0-3.4,0-3.67l-.71-.19V41.6l1.73-.27.08.05,0,4.57Zm-.62-2.35,1.6-1.66-.59-.23v-.42l2.25-.07v.45a4.49,4.49,0,0,0-1.65,1l-.74.72,2.73,2.66-.08.32-.92.25L118.71,44Z"/><path class="cls-1" d="M123,41.5h1.39c.4,0,.57,0,1.34,0,1.48,0,1.77.8,1.77,1.22a1.19,1.19,0,0,1-.76,1h0a1.38,1.38,0,0,1,1.12,1.36A1.68,1.68,0,0,1,126,46.64c-.84,0-1.13,0-1.43,0-.81,0-1.25,0-1.66,0,0-.16,0-.32,0-.47l.75-.21v-3.8l-.67-.18c0-.16,0-.32.07-.48m3.43,1.34c0-.45-.38-.67-1.12-.67a4.88,4.88,0,0,0-.62,0v3.67a4,4,0,0,0,.76.09c.89,0,1.32-.37,1.32-.9s-.34-1-1.63-1c0-.15,0-.29-.08-.45l.11-.1c1.13,0,1.26-.48,1.26-.69"/><path class="cls-1" d="M131.71,43.12c1.1,0,2.13.41,2.13,1.72,0,1.14-.78,1.8-2.15,1.8l-1.72,0h-1.33l0-.47.71-.24V42.2l-.78-.24,0-.45h2.61V42l-.75.19v3.71a3.23,3.23,0,0,0,.86.09c1,0,1.4-.42,1.4-1.1s-.49-1.11-1.48-1.11l-.42,0,0-.57a5,5,0,0,1,1-.09m4.92,3v.5h-2.57l0-.46.74-.24V42.2l-.71-.23,0-.47h2.48l0,.5-.72.18V46Z"/><path class="cls-2" d="M44.55,0H.45A.45.45,0,0,0,0,.45V47.14A2.83,2.83,0,0,0,2.82,50h14.8a1.54,1.54,0,0,1,1.38.61l3.21,3.84a.37.37,0,0,0,.58,0L26,50.57A1.57,1.57,0,0,1,27.38,50h14.8A2.83,2.83,0,0,0,45,47.14V.45A.45.45,0,0,0,44.55,0"/><path class="cls-3" d="M44.55,0H.45A.45.45,0,0,0,0,.45v37.8a3.84,3.84,0,0,0,2.82,1.24H9.24c.4,0,.45.07.6.24l3.21,3.84a1.41,1.41,0,0,0,1.07.51,1.43,1.43,0,0,0,1.08-.51l3.2-3.84c.15-.17.2-.24.6-.24H42.18A3.82,3.82,0,0,0,45,38.25V.45A.45.45,0,0,0,44.55,0"/><path class="cls-4" d="M44.55,0H.45A.45.45,0,0,0,0,.45v37.8a3.84,3.84,0,0,0,2.82,1.24H9.24c.4,0,.45.07.6.24l3.21,3.84a1.41,1.41,0,0,0,1.07.51,1.43,1.43,0,0,0,1.08-.51l3.2-3.84c.15-.17.2-.24.6-.24H42.18A3.82,3.82,0,0,0,45,38.25V.45A.45.45,0,0,0,44.55,0"/><path class="cls-5" d="M44.55,0H.45A.45.45,0,0,0,0,.45v35.2a2.83,2.83,0,0,0,2.82,2.82H9.24a1.59,1.59,0,0,1,1.39.6l3.2,3.84a.36.36,0,0,0,.58,0l3.21-3.84a1.55,1.55,0,0,1,1.38-.6H42.18A2.83,2.83,0,0,0,45,35.65V.45A.45.45,0,0,0,44.55,0"/><path class="cls-6" d="M44.55,0H.45A.45.45,0,0,0,0,.45V24.22a3.84,3.84,0,0,0,2.82,1.25H26c.41,0,.46.06.61.23l3.21,3.84a1.36,1.36,0,0,0,1.07.51A1.37,1.37,0,0,0,32,29.54l3.21-3.84c.15-.17.2-.23.6-.23h6.42A3.83,3.83,0,0,0,45,24.22V.45A.45.45,0,0,0,44.55,0"/><path class="cls-7" d="M44.55,0H.45A.45.45,0,0,0,0,.45V21.62a2.83,2.83,0,0,0,2.82,2.82H26a1.54,1.54,0,0,1,1.39.61l3.21,3.84a.37.37,0,0,0,.58,0l3.2-3.84a1.57,1.57,0,0,1,1.39-.61h6.42A2.83,2.83,0,0,0,45,21.62V.45A.45.45,0,0,0,44.55,0"/></g></g></svg>