<svg xmlns="http://www.w3.org/2000/svg" width="50" height="50" viewBox="0 0 50 50"><defs><style>.cls-1{fill:#fff;}.cls-2{fill:#fcb813;}.cls-3{fill:#6d6e70;}.cls-4{fill:#3db44a;}.cls-5{fill:#f48121;}.cls-6{fill:#c6264b;}.cls-7{fill:#1688c9;}.cls-8{fill:#6362ab;}</style></defs><title>mguu</title><g id="Layer_2" data-name="Layer 2"><g id="Layer_1-2" data-name="Layer 1"><rect class="cls-1" y="25.61" width="24.39" height="24.39"/><polygon class="cls-2" points="0.36 50 24.39 50 24.39 26.02 0.36 50"/><polygon class="cls-3" points="2.57 25.61 12.8 35.83 23.02 25.61 2.57 25.61"/><polygon class="cls-4" points="0 28.73 0 48.63 10.05 38.58 0 28.73"/><rect class="cls-1" width="24.39" height="24.39"/><polygon class="cls-3" points="0.18 0 0 0 0 24.39 11.59 24.39 11.59 11.41 0.18 0"/><polygon class="cls-5" points="5.87 0 12.19 6.33 18.53 0 5.87 0"/><polygon class="cls-6" points="24.22 0 12.81 11.41 12.81 24.39 24.39 24.39 24.39 0 24.22 0"/><rect class="cls-1" x="25.61" width="24.39" height="24.39"/><rect class="cls-7" x="42.28" y="13.76" width="7.71" height="10.63"/><polygon class="cls-3" points="25.61 0.03 25.61 24.39 38.26 24.39 38.26 10.54 25.61 0.03"/><polygon class="cls-7" points="27.36 0 38.85 9.67 50 9.67 50 0 27.36 0"/><rect class="cls-1" x="25.61" y="25.61" width="24.39" height="24.39"/><polygon class="cls-3" points="25.61 25.61 25.61 33.05 34.11 41.55 50 25.61 25.61 25.61"/><polygon class="cls-5" points="31.29 50 50 50 50 31.63 31.29 50"/><polygon class="cls-8" points="25.61 50 33.24 42.41 25.61 34.77 25.61 50"/></g></g></svg>