<svg xmlns="http://www.w3.org/2000/svg" width="87.4" height="50" viewBox="0 0 87.4 50"><defs><style>.cls-1{fill:#f47920;}.cls-2{fill:#fff;}</style></defs><title>x5</title><g id="Layer_2" data-name="Layer 2"><g id="Layer_1-2" data-name="Layer 1"><g id="Logo"><polygon class="cls-1" points="15.24 0 0 0 17.69 25 0 50 15.24 50 32.92 25 15.24 0"/><path class="cls-2" d="M84.91,23.21A8.8,8.8,0,0,0,82,21a9.25,9.25,0,0,0-4-.83,9.38,9.38,0,0,0-3.29.55,7.8,7.8,0,0,0-2.71,1.82l-.08-.09,1.22-7H85.73V10.33H68.6l-3,17h5.61a6.21,6.21,0,0,1,2-1.86,5.46,5.46,0,0,1,2.72-.59,5.35,5.35,0,0,1,2.23.43,4.84,4.84,0,0,1,1.67,1.22,5.51,5.51,0,0,1,1.06,1.84,7.38,7.38,0,0,1,.34,2.23,6.94,6.94,0,0,1-.36,2.2,6.07,6.07,0,0,1-1.06,1.88A5.41,5.41,0,0,1,78.06,36a4.52,4.52,0,0,1-2.2.5A4.94,4.94,0,0,1,72.4,35.2a5.15,5.15,0,0,1-1.58-3.35H64.61a9.56,9.56,0,0,0,1,4.23,9.09,9.09,0,0,0,2.52,3,10.68,10.68,0,0,0,3.61,1.82,15.42,15.42,0,0,0,4.28.6,11.56,11.56,0,0,0,4.37-.77A11.2,11.2,0,0,0,84,38.48,11.54,11.54,0,0,0,86.48,35a10.69,10.69,0,0,0,.92-4.39,12.55,12.55,0,0,0-.65-4A9.75,9.75,0,0,0,84.91,23.21Z"/><polygon class="cls-2" points="63.26 10.33 55.84 10.33 49.58 20.16 43.56 10.33 35.71 10.33 45.62 25 34.89 41.12 42.48 41.12 49.33 30.47 56.05 41.12 64.11 41.12 53.38 25.04 63.26 10.33"/></g></g></g></svg>