<svg xmlns="http://www.w3.org/2000/svg" width="88.46" height="69.48" viewBox="0 0 88.46 69.48"><defs><style>.cls-1{fill:#fff;}</style></defs><title>megafon</title><g id="Layer_2" data-name="Layer 2"><g id="Layer_1-2" data-name="Layer 1"><path class="cls-1" d="M45.66.17V22.85h0a1.79,1.79,0,0,1-1.8,1.77h-2.7a.25.25,0,0,0-.25.25v19q1,.09,2,.09A22,22,0,0,0,45.66.17M58.11,34a2.75,2.75,0,1,1,2.75-2.75A2.75,2.75,0,0,1,58.11,34m-6.45,0a2.75,2.75,0,1,1,2.75-2.75A2.75,2.75,0,0,1,51.66,34m-6.45,0A2.75,2.75,0,1,1,48,31.25,2.75,2.75,0,0,1,45.21,34"/><path class="cls-1" d="M43,0h-.21A22,22,0,0,0,20.94,21.91v.17A22,22,0,0,0,38.27,43.5V23.76h0A1.8,1.8,0,0,1,40,22h2.77a.25.25,0,0,0,.25-.23V0h0m-4.3,18.14a2.75,2.75,0,1,1,2.75-2.75,2.75,2.75,0,0,1-2.75,2.75"/><polygon class="cls-1" points="88.46 59.3 85.94 59.3 85.94 63.12 80.81 63.12 80.81 59.3 78.29 59.3 78.29 69.38 80.81 69.38 80.81 65.31 85.94 65.31 85.94 69.38 88.46 69.38 88.46 59.3"/><path class="cls-1" d="M41.81,59.06h0a2.28,2.28,0,0,0-2.08,1.37L35.6,69.38h2.69l.9-2.13h5.23l.9,2.13H48l-4.13-8.95a2.27,2.27,0,0,0-2.07-1.37m-1.76,6.18,1.55-3.66a.22.22,0,0,1,.21-.15h0a.22.22,0,0,1,.2.15l1.56,3.66Z"/><path class="cls-1" d="M13.83,57.48a2.62,2.62,0,0,0-2.5,1.9L8,67,4.75,59.38a2.62,2.62,0,0,0-2.5-1.9A2.27,2.27,0,0,0,0,60v9.39H2.52V60.25l3.32,7.52A2.38,2.38,0,0,0,8,69.48H8a2.4,2.4,0,0,0,2.21-1.71l3.31-7.52v9.13h2.52V60a2.27,2.27,0,0,0-2.25-2.51"/><path class="cls-1" d="M26.73,59.3H19.26a1.51,1.51,0,0,0-1.5,1.51v7.07a1.51,1.51,0,0,0,1.5,1.5h7.47V67.25H20.5a.21.21,0,0,1-.21-.22V65.24h6.29V63.18H20.29V61.65a.21.21,0,0,1,.21-.22h6.23Z"/><path class="cls-1" d="M37.46,59.3H30a1.51,1.51,0,0,0-1.5,1.51v8.57H31V61.65a.22.22,0,0,1,.22-.22h6.23Z"/><path class="cls-1" d="M71.27,59.15h-.88c-3.82,0-5.34,1.65-5.34,5.17h0c0,3.47,1.55,5.15,5.36,5.15h.84c3.82,0,5.37-1.68,5.37-5.15h0c0-3.52-1.52-5.17-5.35-5.17m-.84,8.24c-2.11,0-2.92-1-2.92-3.06h0c0-2,.71-3,2.92-3h.81c2.14,0,2.92,1,2.92,3h0c0,2.11-.83,3.06-2.92,3.06Z"/><path class="cls-1" d="M58,57.72H53c-3.73,0-5.22,1.88-5.22,5.18a9,9,0,0,0,.1,1.42c.4,2.34,1.77,3.77,5.26,3.77h1.1v1.29h2.52V68.09h1.1c3.5,0,4.87-1.43,5.26-3.77a7.87,7.87,0,0,0,.11-1.42c0-3.3-1.49-5.18-5.23-5.18M56.76,66V59.84h1.56c1.45,0,2.45.91,2.45,3.06a4.07,4.07,0,0,1-.15,1.42c-.37,1-1,1.64-2.7,1.64Zm-3.67,0c-1.71,0-2.33-.64-2.7-1.64a4.07,4.07,0,0,1-.15-1.42c0-2.15,1-3.06,2.45-3.06h1.55V66Z"/></g></g></svg>