<svg xmlns="http://www.w3.org/2000/svg" width="121.92" height="43.75" viewBox="0 0 121.92 43.75"><defs><style>.cls-1{fill:#fff;}</style></defs><title>mts</title><g id="Layer_2" data-name="Layer 2"><g id="Layer_1-2" data-name="Layer 1"><path class="cls-1" d="M39.38,0h-35A4.37,4.37,0,0,0,0,4.37v35a4.38,4.38,0,0,0,4.37,4.38h35a4.38,4.38,0,0,0,4.37-4.38v-35A4.37,4.37,0,0,0,39.38,0Zm2.18,39.37a2.19,2.19,0,0,1-2.18,2.19h-35a2.19,2.19,0,0,1-2.18-2.19v-35A2.19,2.19,0,0,1,4.37,2.19h35a2.19,2.19,0,0,1,2.18,2.18Z"/><path class="cls-1" d="M21.87,37.21c-7.57,0-11-6.07-11-12.09a25.6,25.6,0,0,1,3.71-12.68c2.25-3.69,5-5.9,7.24-5.9s5,2.21,7.25,5.9a25.51,25.51,0,0,1,3.72,12.68c0,6-3.39,12.09-11,12.09Z"/><polygon class="cls-1" points="83.37 16.52 89.68 16.52 89.68 32.81 96.25 32.81 96.25 16.52 102.56 16.52 102.94 10.99 82.99 10.99 83.37 16.52"/><polygon class="cls-1" points="69.99 30.62 73.48 22.25 73.86 22.25 74.59 32.81 80.94 32.81 79.49 10.99 73.35 10.99 68.07 23.39 67.69 23.39 62.19 10.99 56.14 10.99 54.69 32.81 60.87 32.81 61.51 22.25 61.89 22.25 65.81 30.62 69.99 30.62"/><path class="cls-1" d="M121.5,27.36a48.73,48.73,0,0,1-5.6.34c-3.66,0-4.38-1.17-4.38-4.06V20.16c0-3,.64-4.11,4.38-4.11a42,42,0,0,1,5.31.38l.37-5.36a53.17,53.17,0,0,0-6.18-.46c-7.62,0-10.4,2.51-10.4,8.63v5.32c0,6.74,3.37,8.63,10.36,8.63a65.6,65.6,0,0,0,6.56-.46Z"/></g></g></svg>